<mxfile host="app.diagrams.net" modified="2024-05-08T19:24:14.487Z" agent="Mozilla/5.0 (Windows NT 10.0; Win64; x64) AppleWebKit/537.36 (KHTML, like Gecko) Chrome/124.0.0.0 Safari/537.36" etag="dN95-pUo1uwQ0vB4C1Ek" version="24.3.1" type="github">
  <diagram name="Page-1" id="T0OKX21jtlpELvZYwZ1H">
    <mxGraphModel dx="1727" dy="1787" grid="1" gridSize="10" guides="1" tooltips="1" connect="1" arrows="1" fold="1" page="1" pageScale="1" pageWidth="850" pageHeight="1100" math="0" shadow="0">
      <root>
        <mxCell id="0" />
        <mxCell id="1" parent="0" />
        <mxCell id="TiYCmkccxlJQoVetogw1-85" style="edgeStyle=none;curved=1;rounded=0;orthogonalLoop=1;jettySize=auto;html=1;exitX=0.5;exitY=1;exitDx=0;exitDy=0;exitPerimeter=0;entryX=0.5;entryY=0;entryDx=0;entryDy=0;fontSize=12;startSize=8;endSize=8;" edge="1" parent="1" source="TiYCmkccxlJQoVetogw1-2" target="TiYCmkccxlJQoVetogw1-81">
          <mxGeometry relative="1" as="geometry" />
        </mxCell>
        <mxCell id="TiYCmkccxlJQoVetogw1-2" value="Start" style="strokeWidth=2;html=1;shape=mxgraph.flowchart.start_1;whiteSpace=wrap;" vertex="1" parent="1">
          <mxGeometry x="40" y="20" width="100" height="60" as="geometry" />
        </mxCell>
        <mxCell id="TiYCmkccxlJQoVetogw1-92" value="" style="edgeStyle=none;curved=1;rounded=0;orthogonalLoop=1;jettySize=auto;html=1;fontSize=12;startSize=8;endSize=8;" edge="1" parent="1" source="TiYCmkccxlJQoVetogw1-51" target="TiYCmkccxlJQoVetogw1-91">
          <mxGeometry relative="1" as="geometry" />
        </mxCell>
        <mxCell id="TiYCmkccxlJQoVetogw1-51" value="Prompt: PC" style="shape=parallelogram;perimeter=parallelogramPerimeter;whiteSpace=wrap;html=1;fixedSize=1;strokeWidth=2;" vertex="1" parent="1">
          <mxGeometry x="30" y="600" width="120" height="60" as="geometry" />
        </mxCell>
        <mxCell id="TiYCmkccxlJQoVetogw1-89" style="edgeStyle=none;curved=1;rounded=0;orthogonalLoop=1;jettySize=auto;html=1;exitX=0.5;exitY=1;exitDx=0;exitDy=0;entryX=0.5;entryY=0;entryDx=0;entryDy=0;fontSize=12;startSize=8;endSize=8;" edge="1" parent="1" source="TiYCmkccxlJQoVetogw1-53" target="TiYCmkccxlJQoVetogw1-51">
          <mxGeometry relative="1" as="geometry" />
        </mxCell>
        <mxCell id="TiYCmkccxlJQoVetogw1-53" value="Prompt: NC" style="shape=parallelogram;perimeter=parallelogramPerimeter;whiteSpace=wrap;html=1;fixedSize=1;strokeWidth=2;" vertex="1" parent="1">
          <mxGeometry x="30" y="440" width="120" height="60" as="geometry" />
        </mxCell>
        <mxCell id="TiYCmkccxlJQoVetogw1-76" value="" style="edgeStyle=none;curved=1;rounded=0;orthogonalLoop=1;jettySize=auto;html=1;fontSize=12;startSize=8;endSize=8;" edge="1" parent="1" source="TiYCmkccxlJQoVetogw1-55" target="TiYCmkccxlJQoVetogw1-75">
          <mxGeometry relative="1" as="geometry" />
        </mxCell>
        <mxCell id="TiYCmkccxlJQoVetogw1-55" value="Prompt: PA" style="shape=parallelogram;perimeter=parallelogramPerimeter;whiteSpace=wrap;html=1;fixedSize=1;strokeWidth=2;" vertex="1" parent="1">
          <mxGeometry x="30" y="300" width="120" height="60" as="geometry" />
        </mxCell>
        <mxCell id="TiYCmkccxlJQoVetogw1-104" value="" style="edgeStyle=none;curved=1;rounded=0;orthogonalLoop=1;jettySize=auto;html=1;fontSize=12;startSize=8;endSize=8;" edge="1" parent="1" source="TiYCmkccxlJQoVetogw1-57" target="TiYCmkccxlJQoVetogw1-103">
          <mxGeometry relative="1" as="geometry" />
        </mxCell>
        <mxCell id="TiYCmkccxlJQoVetogw1-57" value="Prompt: Cash" style="shape=parallelogram;perimeter=parallelogramPerimeter;whiteSpace=wrap;html=1;fixedSize=1;strokeWidth=2;" vertex="1" parent="1">
          <mxGeometry x="30" y="790" width="120" height="60" as="geometry" />
        </mxCell>
        <mxCell id="TiYCmkccxlJQoVetogw1-109" value="" style="edgeStyle=none;curved=1;rounded=0;orthogonalLoop=1;jettySize=auto;html=1;fontSize=12;startSize=8;endSize=8;" edge="1" parent="1" source="TiYCmkccxlJQoVetogw1-59" target="TiYCmkccxlJQoVetogw1-108">
          <mxGeometry relative="1" as="geometry" />
        </mxCell>
        <mxCell id="TiYCmkccxlJQoVetogw1-59" value="Prompt: Houses" style="shape=parallelogram;perimeter=parallelogramPerimeter;whiteSpace=wrap;html=1;fixedSize=1;strokeWidth=2;" vertex="1" parent="1">
          <mxGeometry x="30" y="950" width="120" height="60" as="geometry" />
        </mxCell>
        <mxCell id="TiYCmkccxlJQoVetogw1-116" style="edgeStyle=none;curved=1;rounded=0;orthogonalLoop=1;jettySize=auto;html=1;exitX=1;exitY=0.5;exitDx=0;exitDy=0;entryX=0;entryY=0.5;entryDx=0;entryDy=0;fontSize=12;startSize=8;endSize=8;" edge="1" parent="1" source="TiYCmkccxlJQoVetogw1-61" target="TiYCmkccxlJQoVetogw1-113">
          <mxGeometry relative="1" as="geometry" />
        </mxCell>
        <mxCell id="TiYCmkccxlJQoVetogw1-61" value="Prompt: Hotels" style="shape=parallelogram;perimeter=parallelogramPerimeter;whiteSpace=wrap;html=1;fixedSize=1;strokeWidth=2;" vertex="1" parent="1">
          <mxGeometry x="30" y="1100" width="120" height="60" as="geometry" />
        </mxCell>
        <mxCell id="TiYCmkccxlJQoVetogw1-79" value="5" style="edgeStyle=none;curved=1;rounded=0;orthogonalLoop=1;jettySize=auto;html=1;fontSize=12;startSize=8;endSize=8;" edge="1" parent="1" source="TiYCmkccxlJQoVetogw1-75" target="TiYCmkccxlJQoVetogw1-78">
          <mxGeometry relative="1" as="geometry" />
        </mxCell>
        <mxCell id="TiYCmkccxlJQoVetogw1-88" value="Not 5" style="edgeStyle=none;curved=1;rounded=0;orthogonalLoop=1;jettySize=auto;html=1;exitX=0;exitY=1;exitDx=0;exitDy=0;entryX=1;entryY=0;entryDx=0;entryDy=0;fontSize=12;startSize=8;endSize=8;" edge="1" parent="1" source="TiYCmkccxlJQoVetogw1-75" target="TiYCmkccxlJQoVetogw1-53">
          <mxGeometry relative="1" as="geometry" />
        </mxCell>
        <mxCell id="TiYCmkccxlJQoVetogw1-75" value="Check if&amp;nbsp; 5" style="rhombus;whiteSpace=wrap;html=1;strokeWidth=2;" vertex="1" parent="1">
          <mxGeometry x="240" y="290" width="80" height="80" as="geometry" />
        </mxCell>
        <mxCell id="TiYCmkccxlJQoVetogw1-78" value="Out: One Hotel" style="shape=parallelogram;perimeter=parallelogramPerimeter;whiteSpace=wrap;html=1;fixedSize=1;strokeWidth=2;" vertex="1" parent="1">
          <mxGeometry x="420" y="300" width="120" height="60" as="geometry" />
        </mxCell>
        <mxCell id="TiYCmkccxlJQoVetogw1-80" value="" style="edgeStyle=none;curved=1;rounded=0;orthogonalLoop=1;jettySize=auto;html=1;fontSize=12;startSize=8;endSize=8;" edge="1" parent="1" source="TiYCmkccxlJQoVetogw1-81" target="TiYCmkccxlJQoVetogw1-83">
          <mxGeometry relative="1" as="geometry" />
        </mxCell>
        <mxCell id="TiYCmkccxlJQoVetogw1-81" value="Prompt: Color Group" style="shape=parallelogram;perimeter=parallelogramPerimeter;whiteSpace=wrap;html=1;fixedSize=1;strokeWidth=2;" vertex="1" parent="1">
          <mxGeometry x="30" y="150" width="120" height="60" as="geometry" />
        </mxCell>
        <mxCell id="TiYCmkccxlJQoVetogw1-82" value="No" style="edgeStyle=none;curved=1;rounded=0;orthogonalLoop=1;jettySize=auto;html=1;fontSize=12;startSize=8;endSize=8;" edge="1" parent="1" source="TiYCmkccxlJQoVetogw1-83" target="TiYCmkccxlJQoVetogw1-84">
          <mxGeometry relative="1" as="geometry" />
        </mxCell>
        <mxCell id="TiYCmkccxlJQoVetogw1-87" value="Yes" style="edgeStyle=none;curved=1;rounded=0;orthogonalLoop=1;jettySize=auto;html=1;exitX=0;exitY=1;exitDx=0;exitDy=0;entryX=1;entryY=0;entryDx=0;entryDy=0;fontSize=12;startSize=8;endSize=8;" edge="1" parent="1" source="TiYCmkccxlJQoVetogw1-83" target="TiYCmkccxlJQoVetogw1-55">
          <mxGeometry relative="1" as="geometry" />
        </mxCell>
        <mxCell id="TiYCmkccxlJQoVetogw1-83" value="Own all green?" style="rhombus;whiteSpace=wrap;html=1;strokeWidth=2;" vertex="1" parent="1">
          <mxGeometry x="240" y="140" width="80" height="80" as="geometry" />
        </mxCell>
        <mxCell id="TiYCmkccxlJQoVetogw1-84" value="Out: No Properties" style="shape=parallelogram;perimeter=parallelogramPerimeter;whiteSpace=wrap;html=1;fixedSize=1;strokeWidth=2;" vertex="1" parent="1">
          <mxGeometry x="425" y="150" width="120" height="60" as="geometry" />
        </mxCell>
        <mxCell id="TiYCmkccxlJQoVetogw1-96" value="" style="edgeStyle=none;curved=1;rounded=0;orthogonalLoop=1;jettySize=auto;html=1;fontSize=12;startSize=8;endSize=8;" edge="1" parent="1" source="TiYCmkccxlJQoVetogw1-91" target="TiYCmkccxlJQoVetogw1-95">
          <mxGeometry relative="1" as="geometry" />
        </mxCell>
        <mxCell id="TiYCmkccxlJQoVetogw1-91" value="Calculate number of houses / hotels needed" style="whiteSpace=wrap;html=1;strokeWidth=2;" vertex="1" parent="1">
          <mxGeometry x="210" y="600" width="120" height="60" as="geometry" />
        </mxCell>
        <mxCell id="TiYCmkccxlJQoVetogw1-98" value="IF Prompt: NC = 5 and others = 4" style="edgeStyle=none;curved=1;rounded=0;orthogonalLoop=1;jettySize=auto;html=1;fontSize=12;startSize=8;endSize=8;" edge="1" parent="1" source="TiYCmkccxlJQoVetogw1-95" target="TiYCmkccxlJQoVetogw1-97">
          <mxGeometry relative="1" as="geometry" />
        </mxCell>
        <mxCell id="TiYCmkccxlJQoVetogw1-99" value="Swap not possible" style="edgeStyle=none;curved=1;rounded=0;orthogonalLoop=1;jettySize=auto;html=1;exitX=0;exitY=1;exitDx=0;exitDy=0;entryX=1;entryY=0;entryDx=0;entryDy=0;fontSize=12;startSize=8;endSize=8;" edge="1" parent="1" source="TiYCmkccxlJQoVetogw1-95" target="TiYCmkccxlJQoVetogw1-57">
          <mxGeometry relative="1" as="geometry" />
        </mxCell>
        <mxCell id="TiYCmkccxlJQoVetogw1-101" value="If prompt PC = 5 and others = 4" style="edgeStyle=none;curved=1;rounded=0;orthogonalLoop=1;jettySize=auto;html=1;fontSize=12;startSize=8;endSize=8;" edge="1" parent="1" source="TiYCmkccxlJQoVetogw1-95" target="TiYCmkccxlJQoVetogw1-100">
          <mxGeometry relative="1" as="geometry" />
        </mxCell>
        <mxCell id="TiYCmkccxlJQoVetogw1-95" value="Check if swap possible" style="rhombus;whiteSpace=wrap;html=1;strokeWidth=2;" vertex="1" parent="1">
          <mxGeometry x="375" y="555" width="170" height="150" as="geometry" />
        </mxCell>
        <mxCell id="TiYCmkccxlJQoVetogw1-133" style="edgeStyle=none;curved=1;rounded=0;orthogonalLoop=1;jettySize=auto;html=1;exitX=1;exitY=0.5;exitDx=0;exitDy=0;fontSize=12;startSize=8;endSize=8;" edge="1" parent="1" source="TiYCmkccxlJQoVetogw1-97" target="TiYCmkccxlJQoVetogw1-131">
          <mxGeometry relative="1" as="geometry" />
        </mxCell>
        <mxCell id="TiYCmkccxlJQoVetogw1-97" value="Out: Swap NC" style="shape=parallelogram;perimeter=parallelogramPerimeter;whiteSpace=wrap;html=1;fixedSize=1;strokeWidth=2;" vertex="1" parent="1">
          <mxGeometry x="530" y="450" width="120" height="60" as="geometry" />
        </mxCell>
        <mxCell id="TiYCmkccxlJQoVetogw1-100" value="Out: Swap PC" style="shape=parallelogram;perimeter=parallelogramPerimeter;whiteSpace=wrap;html=1;fixedSize=1;strokeWidth=2;" vertex="1" parent="1">
          <mxGeometry x="530" y="730" width="120" height="60" as="geometry" />
        </mxCell>
        <mxCell id="TiYCmkccxlJQoVetogw1-106" value="Cost &amp;gt; cash" style="edgeStyle=none;curved=1;rounded=0;orthogonalLoop=1;jettySize=auto;html=1;fontSize=12;startSize=8;endSize=8;" edge="1" parent="1" source="TiYCmkccxlJQoVetogw1-103" target="TiYCmkccxlJQoVetogw1-105">
          <mxGeometry relative="1" as="geometry" />
        </mxCell>
        <mxCell id="TiYCmkccxlJQoVetogw1-107" value="else" style="edgeStyle=none;curved=1;rounded=0;orthogonalLoop=1;jettySize=auto;html=1;exitX=0;exitY=1;exitDx=0;exitDy=0;entryX=1;entryY=0;entryDx=0;entryDy=0;fontSize=12;startSize=8;endSize=8;" edge="1" parent="1" source="TiYCmkccxlJQoVetogw1-103" target="TiYCmkccxlJQoVetogw1-59">
          <mxGeometry relative="1" as="geometry" />
        </mxCell>
        <mxCell id="TiYCmkccxlJQoVetogw1-103" value="Check calculated costs" style="rhombus;whiteSpace=wrap;html=1;strokeWidth=2;" vertex="1" parent="1">
          <mxGeometry x="250" y="780" width="80" height="80" as="geometry" />
        </mxCell>
        <mxCell id="TiYCmkccxlJQoVetogw1-105" value="Out: Cash" style="shape=parallelogram;perimeter=parallelogramPerimeter;whiteSpace=wrap;html=1;fixedSize=1;strokeWidth=2;" vertex="1" parent="1">
          <mxGeometry x="510" y="840" width="120" height="60" as="geometry" />
        </mxCell>
        <mxCell id="TiYCmkccxlJQoVetogw1-111" value="Needed &amp;gt; Available" style="edgeStyle=none;curved=1;rounded=0;orthogonalLoop=1;jettySize=auto;html=1;fontSize=12;startSize=8;endSize=8;" edge="1" parent="1" source="TiYCmkccxlJQoVetogw1-108" target="TiYCmkccxlJQoVetogw1-110">
          <mxGeometry relative="1" as="geometry" />
        </mxCell>
        <mxCell id="TiYCmkccxlJQoVetogw1-112" value="else" style="edgeStyle=none;curved=1;rounded=0;orthogonalLoop=1;jettySize=auto;html=1;exitX=0;exitY=1;exitDx=0;exitDy=0;entryX=1;entryY=0;entryDx=0;entryDy=0;fontSize=12;startSize=8;endSize=8;" edge="1" parent="1" source="TiYCmkccxlJQoVetogw1-108" target="TiYCmkccxlJQoVetogw1-61">
          <mxGeometry relative="1" as="geometry" />
        </mxCell>
        <mxCell id="TiYCmkccxlJQoVetogw1-108" value="Check available hosues" style="rhombus;whiteSpace=wrap;html=1;strokeWidth=2;" vertex="1" parent="1">
          <mxGeometry x="250" y="940" width="80" height="80" as="geometry" />
        </mxCell>
        <mxCell id="TiYCmkccxlJQoVetogw1-110" value="Out: No Houses" style="shape=parallelogram;perimeter=parallelogramPerimeter;whiteSpace=wrap;html=1;fixedSize=1;strokeWidth=2;" vertex="1" parent="1">
          <mxGeometry x="500" y="950" width="120" height="60" as="geometry" />
        </mxCell>
        <mxCell id="TiYCmkccxlJQoVetogw1-118" value="Needed &amp;gt; Available" style="edgeStyle=none;curved=1;rounded=0;orthogonalLoop=1;jettySize=auto;html=1;fontSize=12;startSize=8;endSize=8;" edge="1" parent="1" source="TiYCmkccxlJQoVetogw1-113" target="TiYCmkccxlJQoVetogw1-117">
          <mxGeometry relative="1" as="geometry" />
        </mxCell>
        <mxCell id="TiYCmkccxlJQoVetogw1-120" value="" style="edgeStyle=none;curved=1;rounded=0;orthogonalLoop=1;jettySize=auto;html=1;fontSize=12;startSize=8;endSize=8;" edge="1" parent="1" source="TiYCmkccxlJQoVetogw1-113" target="TiYCmkccxlJQoVetogw1-119">
          <mxGeometry relative="1" as="geometry" />
        </mxCell>
        <mxCell id="TiYCmkccxlJQoVetogw1-113" value="Check available hotels" style="rhombus;whiteSpace=wrap;html=1;strokeWidth=2;" vertex="1" parent="1">
          <mxGeometry x="250" y="1090" width="80" height="80" as="geometry" />
        </mxCell>
        <mxCell id="TiYCmkccxlJQoVetogw1-117" value="Out: No Hotels" style="shape=parallelogram;perimeter=parallelogramPerimeter;whiteSpace=wrap;html=1;fixedSize=1;strokeWidth=2;" vertex="1" parent="1">
          <mxGeometry x="500" y="1100" width="120" height="60" as="geometry" />
        </mxCell>
        <mxCell id="TiYCmkccxlJQoVetogw1-122" value="" style="edgeStyle=none;curved=1;rounded=0;orthogonalLoop=1;jettySize=auto;html=1;fontSize=12;startSize=8;endSize=8;" edge="1" parent="1" source="TiYCmkccxlJQoVetogw1-119" target="TiYCmkccxlJQoVetogw1-121">
          <mxGeometry relative="1" as="geometry" />
        </mxCell>
        <mxCell id="TiYCmkccxlJQoVetogw1-119" value="Figure out which houses are needed where" style="whiteSpace=wrap;html=1;strokeWidth=2;" vertex="1" parent="1">
          <mxGeometry x="230" y="1230" width="120" height="60" as="geometry" />
        </mxCell>
        <mxCell id="TiYCmkccxlJQoVetogw1-124" value="Needed everywhere" style="edgeStyle=none;curved=1;rounded=0;orthogonalLoop=1;jettySize=auto;html=1;fontSize=12;startSize=8;endSize=8;" edge="1" parent="1" source="TiYCmkccxlJQoVetogw1-121" target="TiYCmkccxlJQoVetogw1-123">
          <mxGeometry relative="1" as="geometry" />
        </mxCell>
        <mxCell id="TiYCmkccxlJQoVetogw1-126" value="Needed at Pa and NC" style="edgeStyle=none;curved=1;rounded=0;orthogonalLoop=1;jettySize=auto;html=1;fontSize=12;startSize=8;endSize=8;" edge="1" parent="1" source="TiYCmkccxlJQoVetogw1-121" target="TiYCmkccxlJQoVetogw1-125">
          <mxGeometry relative="1" as="geometry" />
        </mxCell>
        <mxCell id="TiYCmkccxlJQoVetogw1-128" value="Needed at PA and PC" style="edgeStyle=none;curved=1;rounded=0;orthogonalLoop=1;jettySize=auto;html=1;fontSize=12;startSize=8;endSize=8;" edge="1" parent="1" source="TiYCmkccxlJQoVetogw1-121" target="TiYCmkccxlJQoVetogw1-127">
          <mxGeometry relative="1" as="geometry" />
        </mxCell>
        <mxCell id="TiYCmkccxlJQoVetogw1-130" value="Needed at PA" style="edgeStyle=none;curved=1;rounded=0;orthogonalLoop=1;jettySize=auto;html=1;fontSize=12;startSize=8;endSize=8;" edge="1" parent="1" source="TiYCmkccxlJQoVetogw1-121" target="TiYCmkccxlJQoVetogw1-129">
          <mxGeometry relative="1" as="geometry" />
        </mxCell>
        <mxCell id="TiYCmkccxlJQoVetogw1-121" value="check if houses needed are everywhere, or only in some places" style="rhombus;whiteSpace=wrap;html=1;strokeWidth=2;" vertex="1" parent="1">
          <mxGeometry x="490" y="1180" width="180" height="160" as="geometry" />
        </mxCell>
        <mxCell id="TiYCmkccxlJQoVetogw1-138" style="edgeStyle=none;curved=1;rounded=0;orthogonalLoop=1;jettySize=auto;html=1;exitX=0.5;exitY=0;exitDx=0;exitDy=0;fontSize=12;startSize=8;endSize=8;" edge="1" parent="1" source="TiYCmkccxlJQoVetogw1-123" target="TiYCmkccxlJQoVetogw1-131">
          <mxGeometry relative="1" as="geometry" />
        </mxCell>
        <mxCell id="TiYCmkccxlJQoVetogw1-123" value="Out: Purchase A" style="shape=parallelogram;perimeter=parallelogramPerimeter;whiteSpace=wrap;html=1;fixedSize=1;strokeWidth=2;" vertex="1" parent="1">
          <mxGeometry x="730" y="1140" width="120" height="60" as="geometry" />
        </mxCell>
        <mxCell id="TiYCmkccxlJQoVetogw1-125" value="Out: Purchase B" style="shape=parallelogram;perimeter=parallelogramPerimeter;whiteSpace=wrap;html=1;fixedSize=1;strokeWidth=2;" vertex="1" parent="1">
          <mxGeometry x="920" y="1190" width="120" height="60" as="geometry" />
        </mxCell>
        <mxCell id="TiYCmkccxlJQoVetogw1-140" style="edgeStyle=none;curved=1;rounded=0;orthogonalLoop=1;jettySize=auto;html=1;exitX=0.5;exitY=0;exitDx=0;exitDy=0;fontSize=12;startSize=8;endSize=8;" edge="1" parent="1" source="TiYCmkccxlJQoVetogw1-127" target="TiYCmkccxlJQoVetogw1-131">
          <mxGeometry relative="1" as="geometry" />
        </mxCell>
        <mxCell id="TiYCmkccxlJQoVetogw1-127" value="Out: Purchase C" style="shape=parallelogram;perimeter=parallelogramPerimeter;whiteSpace=wrap;html=1;fixedSize=1;strokeWidth=2;" vertex="1" parent="1">
          <mxGeometry x="1080" y="1250" width="120" height="60" as="geometry" />
        </mxCell>
        <mxCell id="TiYCmkccxlJQoVetogw1-141" style="edgeStyle=none;curved=1;rounded=0;orthogonalLoop=1;jettySize=auto;html=1;exitX=0.5;exitY=0;exitDx=0;exitDy=0;fontSize=12;startSize=8;endSize=8;" edge="1" parent="1" source="TiYCmkccxlJQoVetogw1-129" target="TiYCmkccxlJQoVetogw1-131">
          <mxGeometry relative="1" as="geometry" />
        </mxCell>
        <mxCell id="TiYCmkccxlJQoVetogw1-129" value="Out: Purchase D" style="shape=parallelogram;perimeter=parallelogramPerimeter;whiteSpace=wrap;html=1;fixedSize=1;strokeWidth=2;" vertex="1" parent="1">
          <mxGeometry x="1275" y="1310" width="120" height="60" as="geometry" />
        </mxCell>
        <mxCell id="TiYCmkccxlJQoVetogw1-131" value="End" style="strokeWidth=2;html=1;shape=mxgraph.flowchart.terminator;whiteSpace=wrap;" vertex="1" parent="1">
          <mxGeometry x="1000" y="400" width="290" height="200" as="geometry" />
        </mxCell>
        <mxCell id="TiYCmkccxlJQoVetogw1-132" style="edgeStyle=none;curved=1;rounded=0;orthogonalLoop=1;jettySize=auto;html=1;exitX=1;exitY=0.75;exitDx=0;exitDy=0;entryX=0.047;entryY=0.265;entryDx=0;entryDy=0;entryPerimeter=0;fontSize=12;startSize=8;endSize=8;" edge="1" parent="1" source="TiYCmkccxlJQoVetogw1-84" target="TiYCmkccxlJQoVetogw1-131">
          <mxGeometry relative="1" as="geometry" />
        </mxCell>
        <mxCell id="TiYCmkccxlJQoVetogw1-134" style="edgeStyle=none;curved=1;rounded=0;orthogonalLoop=1;jettySize=auto;html=1;exitX=1;exitY=0.25;exitDx=0;exitDy=0;entryX=0.023;entryY=0.692;entryDx=0;entryDy=0;entryPerimeter=0;fontSize=12;startSize=8;endSize=8;" edge="1" parent="1" source="TiYCmkccxlJQoVetogw1-100" target="TiYCmkccxlJQoVetogw1-131">
          <mxGeometry relative="1" as="geometry" />
        </mxCell>
        <mxCell id="TiYCmkccxlJQoVetogw1-135" style="edgeStyle=none;curved=1;rounded=0;orthogonalLoop=1;jettySize=auto;html=1;exitX=1;exitY=0.25;exitDx=0;exitDy=0;entryX=0.11;entryY=0.89;entryDx=0;entryDy=0;entryPerimeter=0;fontSize=12;startSize=8;endSize=8;" edge="1" parent="1" source="TiYCmkccxlJQoVetogw1-105" target="TiYCmkccxlJQoVetogw1-131">
          <mxGeometry relative="1" as="geometry" />
        </mxCell>
        <mxCell id="TiYCmkccxlJQoVetogw1-136" style="edgeStyle=none;curved=1;rounded=0;orthogonalLoop=1;jettySize=auto;html=1;exitX=1;exitY=0.25;exitDx=0;exitDy=0;entryX=0.195;entryY=0.976;entryDx=0;entryDy=0;entryPerimeter=0;fontSize=12;startSize=8;endSize=8;" edge="1" parent="1" source="TiYCmkccxlJQoVetogw1-110" target="TiYCmkccxlJQoVetogw1-131">
          <mxGeometry relative="1" as="geometry" />
        </mxCell>
        <mxCell id="TiYCmkccxlJQoVetogw1-137" style="edgeStyle=none;curved=1;rounded=0;orthogonalLoop=1;jettySize=auto;html=1;exitX=1;exitY=0.25;exitDx=0;exitDy=0;entryX=0.276;entryY=1.012;entryDx=0;entryDy=0;entryPerimeter=0;fontSize=12;startSize=8;endSize=8;" edge="1" parent="1" source="TiYCmkccxlJQoVetogw1-117" target="TiYCmkccxlJQoVetogw1-131">
          <mxGeometry relative="1" as="geometry" />
        </mxCell>
        <mxCell id="TiYCmkccxlJQoVetogw1-139" style="edgeStyle=none;curved=1;rounded=0;orthogonalLoop=1;jettySize=auto;html=1;exitX=0.75;exitY=0;exitDx=0;exitDy=0;entryX=0.415;entryY=1.024;entryDx=0;entryDy=0;entryPerimeter=0;fontSize=12;startSize=8;endSize=8;" edge="1" parent="1" source="TiYCmkccxlJQoVetogw1-125" target="TiYCmkccxlJQoVetogw1-131">
          <mxGeometry relative="1" as="geometry" />
        </mxCell>
      </root>
    </mxGraphModel>
  </diagram>
</mxfile>
